<svg xmlns="http://www.w3.org/2000/svg" id="Calque_1" data-name="Calque 1" viewBox="0 0 548.3 301"><defs><style>      .cls-1 {        fill: #000;      }      .cls-1, .cls-2, .cls-3 {        stroke-width: 0px;      }      .cls-2 {        fill: #a32523;      }      .cls-3 {        fill: none;      }    </style></defs><line class="cls-3" x1="274.1" y1="1" x2="274.1" y2="300"></line><line class="cls-3" x1="1" y1="150.5" x2="547.3" y2="150.5"></line><path class="cls-1" d="M467.8,43.9C416,15.6,347.3,0,274.1,0S132.2,15.6,80.5,43.9C28.6,72.3,0,110.2,0,150.5s28.6,78.2,80.5,106.6c51.7,28.3,120.5,43.9,193.6,43.9s141.9-15.6,193.7-43.9c51.9-28.4,80.5-66.3,80.5-106.6s-28.6-78.2-80.5-106.6ZM517.9,216.6h-58.8c13.2-19.7,20.7-41.8,20.9-65.1h66.3c-.3,23.4-10.4,45.5-28.4,65.1ZM2,151.5h66.3c.2,23.3,7.7,45.4,20.9,65.1H30.5C12.5,197,2.3,174.9,2,151.5ZM30.5,84.4h58.8c-13.2,19.7-20.7,41.8-20.9,65.1H2c.3-23.4,10.5-45.5,28.4-65.1ZM478,149.5h-66.3c-.1-23.3-5.1-45.4-14-65.1h58.9c13.5,19.6,21.1,41.7,21.3,65.1ZM409.7,149.5h-66.3c0-22.9-2.5-45.1-7-65.1h59.1c9,19.6,14,41.7,14.2,65.1ZM341.4,149.5h-66.3v-65.1h59.2c4.4,19.6,7,41.7,7,65.1ZM275.1,82.4V2c25.6.8,47.7,33.2,58.8,80.4h-58.8ZM273.1,82.4h-58.8C225.4,35.3,247.5,2.9,273.1,2v80.4ZM273.1,84.4v65.1h-66.3c0-23.4,2.6-45.5,7-65.1h59.2ZM204.8,149.5h-66.3c.2-23.4,5.3-45.5,14.2-65.1h59.1c-4.5,20-6.9,42.1-7,65.1ZM136.6,149.5h-66.3c.2-23.4,7.9-45.5,21.3-65.1h59c-8.8,19.7-13.8,41.8-14,65.1ZM70.3,151.5h66.3c.1,23.3,5.1,45.4,14,65.1h-58.9c-13.5-19.6-21.1-41.7-21.3-65.1ZM138.5,151.5h66.3c0,22.9,2.5,45,7,65.1h-59.1c-8.9-19.6-14-41.7-14.1-65.1ZM206.8,151.5h66.3v65.1h-59.3c-4.4-19.6-7-41.7-7-65.1ZM273.1,218.6v80.5c-25.6-.8-47.7-33.3-58.8-80.5h58.8ZM275.1,218.6h58.8c-11.1,47.2-33.2,79.6-58.8,80.5v-80.5ZM275.1,216.6v-65.1h66.3c0,23.4-2.6,45.5-7,65.1h-59.3ZM343.4,151.5h66.3c-.1,23.4-5.2,45.5-14.2,65.1h-59.1c4.5-20,6.9-42.2,7-65.1ZM411.7,151.5h66.3c-.2,23.4-7.9,45.5-21.3,65.1h-59c8.8-19.7,13.8-41.8,14-65.1ZM480,149.5c-.2-23.3-7.7-45.4-21-65.1h58.8c18,19.6,28.2,41.7,28.5,65.1h-66.3ZM515.9,82.4h-58.3c-26.7-38.4-75.3-67.3-133.7-77.9,83.6,8.5,153.9,37.9,191.9,77.9ZM455.3,82.4h-58.5c-18.4-39.5-52.3-69.1-92.9-78.9,65.9,7.1,121.8,37.3,151.4,78.9ZM394.6,82.4h-58.6c-3.2-13.8-7.5-26.7-12.6-38-10-21.8-22.5-36.1-36.1-41.7,46.8,4.9,86.7,36,107.4,79.7ZM224.9,44.5c-5.2,11.3-9.4,24.1-12.6,37.9h-58.6C174.4,38.7,214.3,7.6,261,2.7c-13.6,5.6-26.1,19.9-36.1,41.8ZM151.5,82.4h-58.5C122.6,40.8,178.4,10.6,244.4,3.5c-40.6,9.9-74.5,39.4-92.9,78.9ZM224.3,4.5c-58.4,10.6-106.9,39.5-133.7,77.9h-58.3C70.3,42.4,140.6,13,224.3,4.5ZM32.4,218.6h58.3c26.7,38.4,75.3,67.3,133.7,77.9-83.6-8.5-153.9-37.9-191.9-77.9ZM93,218.6h58.4c18.4,39.6,52.3,69.1,92.9,78.9-65.9-7.1-121.8-37.3-151.4-78.9ZM153.6,218.6h58.7c3.2,13.9,7.5,26.7,12.7,38.1,10,21.8,22.5,36.1,36.1,41.7-46.9-4.9-86.8-36-107.4-79.8ZM323.3,256.6c5.2-11.3,9.4-24.1,12.7-38h58.6c-20.7,43.7-60.6,74.8-107.4,79.7,13.7-5.6,26.2-19.9,36.1-41.7ZM396.8,218.6h58.5c-29.6,41.7-85.4,71.9-151.4,78.9,40.6-9.9,74.5-39.4,92.9-78.9ZM324,296.6c58.4-10.6,107-39.6,133.7-78h58.3c-38,40-108.3,69.5-192,78Z"></path><path class="cls-2" d="M461.6,148l-5.8,3.6c-61,37.4-104.6,59.5-147.3,62.2-13.4.9-20.6-1.7-22.4-3.1,1.8-3.8,17-16.3,22.1-20.6,29.4-24.3,73.6-51.9,98.4-58.8-.2.2-.3.4-.5.6-2,2.8-2.6,6.2-1.7,9.4,2.2,7.6,14.2,12.5,28.6,11.6,7.8-.5,18.1-2.5,22.7-9,2.2-3.2,2.8-6.9,1.7-10.8-3.6-12.5-20.9-18.7-47.4-17-44.8,2.9-116.3,35.7-141.8,65.1-5.7,6.6-8.9,12.8-9.5,18.5-5.7,3.1-11.2,6.1-16.6,9-49.9,27.1-82.8,44.9-112,46.8-5.6.4-10.1-1.3-11.2-2.4,0-.9.8-4.3,11.3-14,13-12,38.1-31.2,76.6-58.5,38.1-8.3,88.6-27.1,135.5-50.4,23.6-11.7,80.3-41.8,95.7-67.6,3.8-6.4,5-12.3,3.5-17.5l-.2-.4c-3.2-8.2-14.3-12.7-29.2-11.7-35.2,2.3-122.2,50.8-192.7,97.9-62.5,33.9-103.6,51.1-125.8,52.5-2.5.2-4.6.1-6.2-.1,3.9-3.1,10.8-7.8,18-12.7,2.5-1.7,5.2-3.6,8.1-5.5l126.5-85.2,39.9-2.5,15.4-14.9-32.5,2.1,65.6-44.3-60.6,3.9-65.6,44.3-40.1,2.6-20.3,15.2,37.7-2.4-80.7,54.7c-29.8,19.9-40,32.4-36.6,44.4,2.2,7.7,11.4,15.6,30.6,14.3,14.5-.9,32.9-6.1,57.2-16.4-11.9,9.4-22.2,18.2-30.6,26-27.6,25.8-29.1,36.2-27.3,42.4,2.2,7.6,10,19.8,37.7,19.8s4.4-.1,6.7-.2c25.8-1.6,51.1-12.4,126.7-54.5,6.1,7.8,19.4,14.9,48.1,13.1,39-2.5,82.8-20.6,151.2-62.5l3.4-2.1-4.3-14.9ZM424.3,49c.5,1.7-.2,4.1-1.8,7-16,28-109.2,78-188.6,102.9,92.1-72,160-110.9,181.1-112.2,5.9-.4,8.9.9,9.3,2.3Z"></path></svg>